<mxfile host="Electron" modified="2024-04-25T10:29:08.709Z" agent="Mozilla/5.0 (X11; Linux x86_64) AppleWebKit/537.36 (KHTML, like Gecko) draw.io/24.2.5 Chrome/120.0.6099.109 Electron/28.1.0 Safari/537.36" etag="oLY2gdk-uk2QhY5_bIYT" version="24.2.5" type="device">
  <diagram id="C5RBs43oDa-KdzZeNtuy" name="Page-1">
    <mxGraphModel dx="794" dy="1128" grid="1" gridSize="10" guides="1" tooltips="1" connect="1" arrows="1" fold="1" page="1" pageScale="1" pageWidth="600" pageHeight="540" math="0" shadow="0">
      <root>
        <mxCell id="WIyWlLk6GJQsqaUBKTNV-0" />
        <mxCell id="WIyWlLk6GJQsqaUBKTNV-1" parent="WIyWlLk6GJQsqaUBKTNV-0" />
        <mxCell id="oAeWeOyywlavheIQp_EQ-43" value="Movie" style="swimlane;fontStyle=1;align=center;verticalAlign=top;childLayout=stackLayout;horizontal=1;startSize=30;horizontalStack=0;resizeParent=1;resizeParentMax=0;resizeLast=0;collapsible=0;marginBottom=0;whiteSpace=wrap;html=1;fontSize=14;" parent="WIyWlLk6GJQsqaUBKTNV-1" vertex="1">
          <mxGeometry x="40" y="40" width="240" height="454" as="geometry" />
        </mxCell>
        <mxCell id="oAeWeOyywlavheIQp_EQ-44" value="- title: String" style="text;strokeColor=none;fillColor=none;align=left;verticalAlign=middle;spacingLeft=4;spacingRight=4;overflow=hidden;rotatable=0;points=[[0,0.5],[1,0.5]];portConstraint=eastwest;whiteSpace=wrap;html=1;fontSize=10;fontFamily=Courier New;" parent="oAeWeOyywlavheIQp_EQ-43" vertex="1">
          <mxGeometry y="30" width="240" height="20" as="geometry" />
        </mxCell>
        <mxCell id="rgos0depHT-uJ3BXyTeP-0" value="- director: String" style="text;strokeColor=none;fillColor=none;align=left;verticalAlign=middle;spacingLeft=4;spacingRight=4;overflow=hidden;rotatable=0;points=[[0,0.5],[1,0.5]];portConstraint=eastwest;whiteSpace=wrap;html=1;fontSize=10;fontFamily=Courier New;" parent="oAeWeOyywlavheIQp_EQ-43" vertex="1">
          <mxGeometry y="50" width="240" height="20" as="geometry" />
        </mxCell>
        <mxCell id="rgos0depHT-uJ3BXyTeP-2" value="- year: Int" style="text;strokeColor=none;fillColor=none;align=left;verticalAlign=middle;spacingLeft=4;spacingRight=4;overflow=hidden;rotatable=0;points=[[0,0.5],[1,0.5]];portConstraint=eastwest;whiteSpace=wrap;html=1;fontSize=10;fontFamily=Courier New;" parent="oAeWeOyywlavheIQp_EQ-43" vertex="1">
          <mxGeometry y="70" width="240" height="20" as="geometry" />
        </mxCell>
        <mxCell id="rgos0depHT-uJ3BXyTeP-3" value="- genre: String" style="text;strokeColor=none;fillColor=none;align=left;verticalAlign=middle;spacingLeft=4;spacingRight=4;overflow=hidden;rotatable=0;points=[[0,0.5],[1,0.5]];portConstraint=eastwest;whiteSpace=wrap;html=1;fontSize=10;fontFamily=Courier New;" parent="oAeWeOyywlavheIQp_EQ-43" vertex="1">
          <mxGeometry y="90" width="240" height="20" as="geometry" />
        </mxCell>
        <mxCell id="rgos0depHT-uJ3BXyTeP-1" value="- runtime: Int" style="text;strokeColor=none;fillColor=none;align=left;verticalAlign=middle;spacingLeft=4;spacingRight=4;overflow=hidden;rotatable=0;points=[[0,0.5],[1,0.5]];portConstraint=eastwest;whiteSpace=wrap;html=1;fontSize=10;fontFamily=Courier New;" parent="oAeWeOyywlavheIQp_EQ-43" vertex="1">
          <mxGeometry y="110" width="240" height="20" as="geometry" />
        </mxCell>
        <mxCell id="oAeWeOyywlavheIQp_EQ-49" value="" style="line;strokeWidth=1;fillColor=none;align=left;verticalAlign=middle;spacingTop=-1;spacingLeft=3;spacingRight=3;rotatable=0;labelPosition=right;points=[];portConstraint=eastwest;strokeColor=inherit;fontSize=10;fontFamily=Courier New;" parent="oAeWeOyywlavheIQp_EQ-43" vertex="1">
          <mxGeometry y="130" width="240" height="8" as="geometry" />
        </mxCell>
        <mxCell id="oAeWeOyywlavheIQp_EQ-51" value="+&amp;nbsp;Movie(&lt;div&gt;&amp;nbsp; &amp;nbsp; title: String,&lt;/div&gt;&lt;div&gt;&amp;nbsp; &amp;nbsp; director: String,&lt;/div&gt;&lt;div&gt;&amp;nbsp; &amp;nbsp; year: Int,&lt;/div&gt;&lt;div&gt;&amp;nbsp; &amp;nbsp; genre: String,&lt;/div&gt;&lt;div&gt;&amp;nbsp; &amp;nbsp; runtime: Int)&lt;/div&gt;" style="text;strokeColor=none;fillColor=none;align=left;verticalAlign=middle;spacingLeft=4;spacingRight=4;overflow=hidden;rotatable=0;points=[[0,0.5],[1,0.5]];portConstraint=eastwest;whiteSpace=wrap;html=1;fontSize=10;fontFamily=Courier New;" parent="oAeWeOyywlavheIQp_EQ-43" vertex="1">
          <mxGeometry y="138" width="240" height="82" as="geometry" />
        </mxCell>
        <mxCell id="bbliB93K8uDW3tGXe22l-0" value="+&amp;nbsp;getTitle(&lt;span style=&quot;background-color: initial; font-size: 10px;&quot;&gt;): String&lt;/span&gt;" style="text;strokeColor=none;fillColor=none;align=left;verticalAlign=middle;spacingLeft=4;spacingRight=4;overflow=hidden;rotatable=0;points=[[0,0.5],[1,0.5]];portConstraint=eastwest;whiteSpace=wrap;html=1;fontSize=10;fontFamily=Courier New;" parent="oAeWeOyywlavheIQp_EQ-43" vertex="1">
          <mxGeometry y="220" width="240" height="18" as="geometry" />
        </mxCell>
        <mxCell id="oAeWeOyywlavheIQp_EQ-54" value="+&amp;nbsp;setTitle(title: String&lt;span style=&quot;background-color: initial; font-size: 10px;&quot;&gt;): Void&lt;/span&gt;" style="text;strokeColor=none;fillColor=none;align=left;verticalAlign=middle;spacingLeft=4;spacingRight=4;overflow=hidden;rotatable=0;points=[[0,0.5],[1,0.5]];portConstraint=eastwest;whiteSpace=wrap;html=1;fontSize=10;fontFamily=Courier New;" parent="oAeWeOyywlavheIQp_EQ-43" vertex="1">
          <mxGeometry y="238" width="240" height="18" as="geometry" />
        </mxCell>
        <mxCell id="bbliB93K8uDW3tGXe22l-1" value="+&amp;nbsp;getDirector(&lt;span style=&quot;background-color: initial; font-size: 10px;&quot;&gt;): String&lt;/span&gt;" style="text;strokeColor=none;fillColor=none;align=left;verticalAlign=middle;spacingLeft=4;spacingRight=4;overflow=hidden;rotatable=0;points=[[0,0.5],[1,0.5]];portConstraint=eastwest;whiteSpace=wrap;html=1;fontSize=10;fontFamily=Courier New;" parent="oAeWeOyywlavheIQp_EQ-43" vertex="1">
          <mxGeometry y="256" width="240" height="18" as="geometry" />
        </mxCell>
        <mxCell id="oAeWeOyywlavheIQp_EQ-55" value="+&amp;nbsp;setDirector(director: String): Void" style="text;strokeColor=none;fillColor=none;align=left;verticalAlign=middle;spacingLeft=4;spacingRight=4;overflow=hidden;rotatable=0;points=[[0,0.5],[1,0.5]];portConstraint=eastwest;whiteSpace=wrap;html=1;fontSize=10;fontFamily=Courier New;" parent="oAeWeOyywlavheIQp_EQ-43" vertex="1">
          <mxGeometry y="274" width="240" height="18" as="geometry" />
        </mxCell>
        <mxCell id="bbliB93K8uDW3tGXe22l-2" value="+ getYear(&lt;span style=&quot;background-color: initial; font-size: 10px;&quot;&gt;): Int&lt;/span&gt;" style="text;strokeColor=none;fillColor=none;align=left;verticalAlign=middle;spacingLeft=4;spacingRight=4;overflow=hidden;rotatable=0;points=[[0,0.5],[1,0.5]];portConstraint=eastwest;whiteSpace=wrap;html=1;fontSize=10;fontFamily=Courier New;" parent="oAeWeOyywlavheIQp_EQ-43" vertex="1">
          <mxGeometry y="292" width="240" height="18" as="geometry" />
        </mxCell>
        <mxCell id="oAeWeOyywlavheIQp_EQ-56" value="+&amp;nbsp;setYear(year: Int): Void" style="text;strokeColor=none;fillColor=none;align=left;verticalAlign=middle;spacingLeft=4;spacingRight=4;overflow=hidden;rotatable=0;points=[[0,0.5],[1,0.5]];portConstraint=eastwest;whiteSpace=wrap;html=1;fontSize=10;fontFamily=Courier New;" parent="oAeWeOyywlavheIQp_EQ-43" vertex="1">
          <mxGeometry y="310" width="240" height="18" as="geometry" />
        </mxCell>
        <mxCell id="bbliB93K8uDW3tGXe22l-3" value="+&amp;nbsp;getGenre(&lt;span style=&quot;background-color: initial; font-size: 10px;&quot;&gt;): String&lt;/span&gt;" style="text;strokeColor=none;fillColor=none;align=left;verticalAlign=middle;spacingLeft=4;spacingRight=4;overflow=hidden;rotatable=0;points=[[0,0.5],[1,0.5]];portConstraint=eastwest;whiteSpace=wrap;html=1;fontSize=10;fontFamily=Courier New;" parent="oAeWeOyywlavheIQp_EQ-43" vertex="1">
          <mxGeometry y="328" width="240" height="18" as="geometry" />
        </mxCell>
        <mxCell id="rgos0depHT-uJ3BXyTeP-5" value="+&amp;nbsp;setGenre(genre: String): Void" style="text;strokeColor=none;fillColor=none;align=left;verticalAlign=middle;spacingLeft=4;spacingRight=4;overflow=hidden;rotatable=0;points=[[0,0.5],[1,0.5]];portConstraint=eastwest;whiteSpace=wrap;html=1;fontSize=10;fontFamily=Courier New;" parent="oAeWeOyywlavheIQp_EQ-43" vertex="1">
          <mxGeometry y="346" width="240" height="18" as="geometry" />
        </mxCell>
        <mxCell id="bbliB93K8uDW3tGXe22l-4" value="+ getRuntime(&lt;span style=&quot;background-color: initial; font-size: 10px;&quot;&gt;): Int&lt;/span&gt;" style="text;strokeColor=none;fillColor=none;align=left;verticalAlign=middle;spacingLeft=4;spacingRight=4;overflow=hidden;rotatable=0;points=[[0,0.5],[1,0.5]];portConstraint=eastwest;whiteSpace=wrap;html=1;fontSize=10;fontFamily=Courier New;" parent="oAeWeOyywlavheIQp_EQ-43" vertex="1">
          <mxGeometry y="364" width="240" height="18" as="geometry" />
        </mxCell>
        <mxCell id="rgos0depHT-uJ3BXyTeP-4" value="+&amp;nbsp;setRuntime(runtime: Int): Void" style="text;strokeColor=none;fillColor=none;align=left;verticalAlign=middle;spacingLeft=4;spacingRight=4;overflow=hidden;rotatable=0;points=[[0,0.5],[1,0.5]];portConstraint=eastwest;whiteSpace=wrap;html=1;fontSize=10;fontFamily=Courier New;" parent="oAeWeOyywlavheIQp_EQ-43" vertex="1">
          <mxGeometry y="382" width="240" height="18" as="geometry" />
        </mxCell>
        <mxCell id="bbliB93K8uDW3tGXe22l-5" value="+&amp;nbsp;equals(Object o&lt;span style=&quot;background-color: initial; font-size: 10px;&quot;&gt;): Boolean&lt;/span&gt;" style="text;strokeColor=none;fillColor=none;align=left;verticalAlign=middle;spacingLeft=4;spacingRight=4;overflow=hidden;rotatable=0;points=[[0,0.5],[1,0.5]];portConstraint=eastwest;whiteSpace=wrap;html=1;fontSize=10;fontFamily=Courier New;" parent="oAeWeOyywlavheIQp_EQ-43" vertex="1">
          <mxGeometry y="400" width="240" height="18" as="geometry" />
        </mxCell>
        <mxCell id="oAeWeOyywlavheIQp_EQ-57" value="+&amp;nbsp;toString(&lt;span style=&quot;background-color: initial; font-size: 10px;&quot;&gt;): String&lt;/span&gt;" style="text;strokeColor=none;fillColor=none;align=left;verticalAlign=middle;spacingLeft=4;spacingRight=4;overflow=hidden;rotatable=0;points=[[0,0.5],[1,0.5]];portConstraint=eastwest;whiteSpace=wrap;html=1;fontSize=10;fontFamily=Courier New;" parent="oAeWeOyywlavheIQp_EQ-43" vertex="1">
          <mxGeometry y="418" width="240" height="18" as="geometry" />
        </mxCell>
        <mxCell id="bbliB93K8uDW3tGXe22l-6" value="+&amp;nbsp;hashCode(&lt;span style=&quot;background-color: initial; font-size: 10px;&quot;&gt;): Int&lt;/span&gt;" style="text;strokeColor=none;fillColor=none;align=left;verticalAlign=middle;spacingLeft=4;spacingRight=4;overflow=hidden;rotatable=0;points=[[0,0.5],[1,0.5]];portConstraint=eastwest;whiteSpace=wrap;html=1;fontSize=10;fontFamily=Courier New;" parent="oAeWeOyywlavheIQp_EQ-43" vertex="1">
          <mxGeometry y="436" width="240" height="18" as="geometry" />
        </mxCell>
        <mxCell id="rgos0depHT-uJ3BXyTeP-21" value="RecursiveScanner" style="swimlane;fontStyle=1;align=center;verticalAlign=top;childLayout=stackLayout;horizontal=1;startSize=30;horizontalStack=0;resizeParent=1;resizeParentMax=0;resizeLast=0;collapsible=0;marginBottom=0;whiteSpace=wrap;html=1;fontSize=14;" parent="WIyWlLk6GJQsqaUBKTNV-1" vertex="1">
          <mxGeometry x="320" y="40" width="240" height="208" as="geometry" />
        </mxCell>
        <mxCell id="rgos0depHT-uJ3BXyTeP-22" value="- scanner: Scanner" style="text;strokeColor=none;fillColor=none;align=left;verticalAlign=middle;spacingLeft=4;spacingRight=4;overflow=hidden;rotatable=0;points=[[0,0.5],[1,0.5]];portConstraint=eastwest;whiteSpace=wrap;html=1;fontSize=10;fontFamily=Courier New;" parent="rgos0depHT-uJ3BXyTeP-21" vertex="1">
          <mxGeometry y="30" width="240" height="20" as="geometry" />
        </mxCell>
        <mxCell id="rgos0depHT-uJ3BXyTeP-27" value="" style="line;strokeWidth=1;fillColor=none;align=left;verticalAlign=middle;spacingTop=-1;spacingLeft=3;spacingRight=3;rotatable=0;labelPosition=right;points=[];portConstraint=eastwest;strokeColor=inherit;fontSize=10;fontFamily=Courier New;" parent="rgos0depHT-uJ3BXyTeP-21" vertex="1">
          <mxGeometry y="50" width="240" height="8" as="geometry" />
        </mxCell>
        <mxCell id="rgos0depHT-uJ3BXyTeP-28" value="+&amp;nbsp;RecursiveScanner()" style="text;strokeColor=none;fillColor=none;align=left;verticalAlign=middle;spacingLeft=4;spacingRight=4;overflow=hidden;rotatable=0;points=[[0,0.5],[1,0.5]];portConstraint=eastwest;whiteSpace=wrap;html=1;fontSize=10;fontFamily=Courier New;" parent="rgos0depHT-uJ3BXyTeP-21" vertex="1">
          <mxGeometry y="58" width="240" height="22" as="geometry" />
        </mxCell>
        <mxCell id="rgos0depHT-uJ3BXyTeP-29" value="+&amp;nbsp;scan(prompt: String&lt;span style=&quot;background-color: initial; font-size: 10px;&quot;&gt;): String&lt;/span&gt;" style="text;strokeColor=none;fillColor=none;align=left;verticalAlign=middle;spacingLeft=4;spacingRight=4;overflow=hidden;rotatable=0;points=[[0,0.5],[1,0.5]];portConstraint=eastwest;whiteSpace=wrap;html=1;fontSize=10;fontFamily=Courier New;" parent="rgos0depHT-uJ3BXyTeP-21" vertex="1">
          <mxGeometry y="80" width="240" height="18" as="geometry" />
        </mxCell>
        <mxCell id="rgos0depHT-uJ3BXyTeP-36" value="+ scanInt(&lt;div&gt;&amp;nbsp; &amp;nbsp; prompt: String,&lt;/div&gt;&lt;div&gt;&amp;nbsp; &amp;nbsp; rangeFrom: Int,&lt;/div&gt;&lt;div&gt;&amp;nbsp; &amp;nbsp; rangeTo: Int): Int&lt;/div&gt;" style="text;strokeColor=none;fillColor=none;align=left;verticalAlign=middle;spacingLeft=4;spacingRight=4;overflow=hidden;rotatable=0;points=[[0,0.5],[1,0.5]];portConstraint=eastwest;whiteSpace=wrap;html=1;fontSize=10;fontFamily=Courier New;" parent="rgos0depHT-uJ3BXyTeP-21" vertex="1">
          <mxGeometry y="98" width="240" height="52" as="geometry" />
        </mxCell>
        <mxCell id="rgos0depHT-uJ3BXyTeP-37" value="+ scanChar(&lt;div&gt;&amp;nbsp; &amp;nbsp; prompt: String,&lt;/div&gt;&lt;div&gt;&amp;nbsp; &amp;nbsp; allowedInputs: Char[]): Char&lt;/div&gt;" style="text;strokeColor=none;fillColor=none;align=left;verticalAlign=middle;spacingLeft=4;spacingRight=4;overflow=hidden;rotatable=0;points=[[0,0.5],[1,0.5]];portConstraint=eastwest;whiteSpace=wrap;html=1;fontSize=10;fontFamily=Courier New;" parent="rgos0depHT-uJ3BXyTeP-21" vertex="1">
          <mxGeometry y="150" width="240" height="40" as="geometry" />
        </mxCell>
        <mxCell id="Nk4HRtm7m3i_qbDMC2qm-0" value="- isNullOrBlank(s: String): Boolean" style="text;strokeColor=none;fillColor=none;align=left;verticalAlign=middle;spacingLeft=4;spacingRight=4;overflow=hidden;rotatable=0;points=[[0,0.5],[1,0.5]];portConstraint=eastwest;whiteSpace=wrap;html=1;fontSize=10;fontStyle=4;fontFamily=Courier New;" parent="rgos0depHT-uJ3BXyTeP-21" vertex="1">
          <mxGeometry y="190" width="240" height="18" as="geometry" />
        </mxCell>
      </root>
    </mxGraphModel>
  </diagram>
</mxfile>
